/vscmnt/brussel_pixiu_data/_data_brussel/112/vsc11236/PredSimResults/SUBJ07mtu3D/worker4.mot
version=1
nRows=10
nColumns=50
inDegrees=yes
endheader
                time	         pelvis_tilt	         pelvis_list	     pelvis_rotation	           pelvis_tx	           pelvis_ty	           pelvis_tz	       hip_flexion_r	     hip_adduction_r	      hip_rotation_r	        knee_angle_r	       ankle_angle_r	         mtp_angle_r	       hip_flexion_l	     hip_adduction_l	      hip_rotation_l	        knee_angle_l	       ankle_angle_l	         mtp_angle_l	    lumbar_extension	      lumbar_bending	     lumbar_rotation	 ercspn_r/activation	 intobl_r/activation	 extobl_r/activation	    abd_r/activation	    add_r/activation	hamstrings_r/activation	bifemsh_r/activation	glut_max_r/activation	iliopsoas_r/activation	rect_fem_r/activation	  vasti_r/activation	gastroc_r/activation	 soleus_r/activation	tib_ant_r/activation	 ercspn_l/activation	 intobl_l/activation	 extobl_l/activation	    abd_l/activation	    add_l/activation	hamstrings_l/activation	bifemsh_l/activation	glut_max_l/activation	iliopsoas_l/activation	rect_fem_l/activation	  vasti_l/activation	gastroc_l/activation	 soleus_l/activation	tib_ant_l/activation	
          1.06698146	         -6.05527428	         -0.53581244	          7.19205637	          1.30171738	          0.84929716	         -0.00850729	         33.36284577	         -1.68777579	         -3.43106766	        -10.93125093	          7.31029998	          0.25824062	        -11.81152649	          0.33667355	          6.26235381	         -8.59547423	          8.73586848	         26.40924018	         -9.02589295	         -1.94652833	         -0.80743510	          0.12911108	          0.17945775	          0.02023992	          0.03346536	          0.10179644	          0.04155796	          0.01000205	          0.06005468	          0.01662055	          0.02827673	          0.01387328	          0.01000002	          0.01000000	          0.23118163	          0.08311471	          0.01000001	          0.01000002	          0.04362586	          0.02137682	          0.01551712	          0.11279366	          0.03144699	          0.27846302	          0.03144679	          0.02103763	          0.11703234	          0.29108999	          0.01633985	
          1.07765127	         -6.09557804	         -0.44641266	          7.17139566	          1.31663971	          0.84780384	         -0.00841011	         32.98942852	         -1.45381215	         -2.59366231	        -11.76826722	          6.99890233	          0.25460354	        -12.07673355	          0.41865202	          5.84403428	         -9.90308706	          8.02104979	         27.92476162	         -8.90850411	         -1.59733262	         -0.88631174	          0.11239670	          0.15813355	          0.01718407	          0.02841272	          0.12040095	          0.03528352	          0.01000037	          0.12009183	          0.01411117	          0.02400751	          0.01177871	          0.01633987	          0.01633992	          0.21421109	          0.12409476	          0.01000001	          0.01000003	          0.03703918	          0.03722933	          0.01317442	          0.09576395	          0.02669909	          0.28874787	          0.02669897	          0.02651135	          0.09936266	          0.27547284	          0.01387284	
          1.08832109	         -6.12325955	         -0.35174686	          7.10067137	          1.33179924	          0.84645955	         -0.00826381	         32.56528008	         -1.25068846	         -1.75635403	        -12.81564687	          6.74835908	          0.24737517	        -12.25497577	          0.51785404	          5.38260948	        -11.40869032	          7.18257441	         29.40204483	         -8.77206806	         -1.24030640	         -0.96552127	          0.11521190	          0.14840935	          0.01458961	          0.07755978	          0.11926107	          0.03532689	          0.03703553	          0.14077540	          0.01198066	          0.02038286	          0.01000036	          0.01387287	          0.01387291	          0.24867761	          0.13324341	          0.01000001	          0.01000004	          0.03144696	          0.03556817	          0.01118591	          0.08130540	          0.02266803	          0.28748682	          0.02266795	          0.02669918	          0.08436077	          0.25482551	          0.01177831	
          1.09899090	         -6.14041953	         -0.25095543	          6.97864073	          1.34700361	          0.84539422	         -0.00803846	         32.15621398	         -1.05150933	         -1.00390306	        -13.88213788	          6.41875064	          0.23483162	        -12.25798229	          0.63885808	          4.88298717	        -13.24012890	          6.21636730	         30.79271588	         -8.63901637	         -0.88181942	         -1.04275815	          0.12048347	          0.12600235	          0.01238685	          0.11179301	          0.13502371	          0.03627562	          0.03144396	          0.16040393	          0.01017183	          0.01730546	          0.05768327	          0.01177836	          0.01177837	          0.26728215	          0.15642619	          0.01000000	          0.01000003	          0.02669906	          0.04319707	          0.01675323	          0.06902982	          0.01924559	          0.29063922	          0.01924554	          0.02266812	          0.07162388	          0.23308451	          0.01000001	
          1.10966072	         -6.14732136	         -0.15117846	          6.80970573	          1.36213054	          0.84471534	         -0.00773534	         31.78871829	         -0.84319948	         -0.33449481	        -15.02609957	          6.12777407	          0.22191609	        -12.01351541	          0.77546162	          4.34356117	        -15.50430881	          5.13157024	         31.98470093	         -8.51994020	         -0.51685281	         -1.11661118	          0.12368603	          0.10697838	          0.01051668	          0.13860440	          0.14943050	          0.03892613	          0.02669664	          0.17074343	          0.01000006	          0.01469270	          0.11975457	          0.01000013	          0.01000008	          0.27888078	          0.17744556	          0.01000001	          0.01000002	          0.02266800	          0.05865257	          0.01923170	          0.05860763	          0.01633986	          0.28408869	          0.01633983	          0.01924567	          0.06081002	          0.20042082	          0.01000000	
          1.12033053	         -6.14437031	         -0.05638959	          6.59786353	          1.37711911	          0.84449746	         -0.00736414	         31.42145408	         -0.62517537	          0.25885521	        -16.17876756	          5.93329118	          0.20672326	        -11.46854845	          0.92038531	          3.75906471	        -18.28140981	          3.96601251	         32.75905499	         -8.41656625	         -0.14474211	         -1.18524223	          0.11875717	          0.09082667	          0.01000001	          0.15976215	          0.15429552	          0.03998740	          0.02266605	          0.17072821	          0.01000006	          0.01247442	          0.19473530	          0.01000023	          0.01000016	          0.28100966	          0.19776449	          0.01000001	          0.01000003	          0.01924556	          0.06911476	          0.01632864	          0.04975900	          0.01387285	          0.26626262	          0.01387284	          0.01633994	          0.05162885	          0.17016105	          0.01000000	
          1.13100034	         -6.13284089	          0.02985431	          6.34444512	          1.39191568	          0.84480649	         -0.00693465	         31.00157941	         -0.39873702	          0.78030912	        -17.23983875	          5.85397275	          0.19374344	        -10.58789973	          1.06244728	          3.12982659	        -21.60900300	          2.71440396	         32.91439947	         -8.33047661	          0.23475131	         -1.24514470	          0.11679348	          0.07711356	          0.01000002	          0.17106554	          0.14960571	          0.04018685	          0.01924401	          0.16273322	          0.01000006	          0.01059109	          0.25153687	          0.01000020	          0.01000013	          0.27496322	          0.20749009	          0.01000001	          0.01000003	          0.01633984	          0.07653563	          0.01386367	          0.04224636	          0.01177831	          0.23468809	          0.01177831	          0.01387291	          0.04383387	          0.14446993	          0.01000000	
          1.14167016	         -6.11413800	          0.10661761	          6.05124073	          1.40649505	          0.84565170	         -0.00646470	         30.48458096	         -0.16639055	          1.24505060	        -18.12186357	          5.88072596	          0.18308975	         -9.37206846	          1.19058521	          2.46651168	        -25.43315774	          1.25123227	         32.42702749	         -8.26058683	          0.62111499	         -1.29260947	          0.11141584	          0.06547086	          0.01000002	          0.17641636	          0.13623292	          0.03912075	          0.01633864	          0.14738371	          0.01000004	          0.01000018	          0.28988016	          0.01000022	          0.01000009	          0.26427344	          0.20967604	          0.01000001	          0.01000004	          0.01387283	          0.07729507	          0.01177092	          0.03586809	          0.01000001	          0.19925461	          0.01000005	          0.01177837	          0.03721578	          0.12265768	          0.01000000	
          1.15233997	         -6.08964803	          0.17382456	          5.72129568	          1.42084623	          0.84698023	         -0.00597080	         29.85344204	          0.06936287	          1.67599700	        -18.79116858	          6.01418964	          0.17772598	         -7.85624527	          1.29298731	          1.77756863	        -29.62338517	         -0.54876286	         31.30496566	         -8.20527968	          1.01314740	         -1.32537630	          0.09864703	          0.05558600	          0.01000002	          0.18118547	          0.11922788	          0.04046758	          0.01387196	          0.12513200	          0.01000005	          0.01000017	          0.31126244	          0.01000009	          0.01000003	          0.24624225	          0.21308403	          0.01000002	          0.01000004	          0.01177830	          0.06562498	          0.01000095	          0.03197806	          0.01000000	          0.16917092	          0.01000003	          0.01000006	          0.03159690	          0.10413868	          0.01000000	
          1.16300979	         -6.06090000	          0.23089607	          5.36090455	          1.43496299	          0.84870578	         -0.00546059	         29.11595314	          0.30728652	          2.09625457	        -19.26044097	          6.26071873	          0.18491659	         -6.10012069	          1.35670121	          1.06591615	        -34.00666574	         -2.74248727	         29.53333113	         -8.16302489	          1.40767896	         -1.34639883	          0.08375328	          0.04719356	          0.01000002	          0.18761761	          0.10192313	          0.04240492	          0.01177769	          0.10657160	          0.01000004	          0.01000024	          0.32024282	          0.01000010	          0.01000004	          0.21915750	          0.21848205	          0.01000000	          0.01000002	          0.01000000	          0.05571685	          0.01000026	          0.03559870	          0.00999999	          0.14362929	          0.01000004	          0.00999999	          0.02682636	          0.08841569	          0.01570032	
